<svg width="203" height="32" viewBox="0 0 203 32" fill="none" xmlns="http://www.w3.org/2000/svg">
<path d="M29.8131 0.267782V31.5091H21.4226V26.3319H11.113L9.01534 31.5091H0L9.41702 8.74756C10.1311 7.02185 10.8154 5.60855 11.47 4.50767C12.1543 3.40679 12.9279 2.54393 13.7908 1.91911C14.6537 1.29428 15.6802 0.862855 16.8703 0.624826C18.0902 0.386796 19.6076 0.267782 21.4226 0.267782H29.8131ZM21.4226 7.40865C20.4407 7.55742 19.5481 8.10786 18.7448 9.05997C17.9712 10.0121 17.1827 11.47 16.3794 13.4338L14.0139 19.2357H21.4226V7.40865Z" fill="url(#paint0_linear_542_8577)"/>
<path d="M60.4048 31.5091C59.542 31.6578 58.7386 31.7768 57.9948 31.8661C57.2509 31.9554 56.5517 32 55.8971 32C54.6772 32 53.6061 31.8512 52.6838 31.5537C51.7911 31.2859 50.9729 30.8842 50.2291 30.3487C49.4852 29.7834 48.8009 29.0841 48.1761 28.251C47.5513 27.4179 46.8967 26.4658 46.2123 25.3947L44.7842 23.0739H40.9906V31.5091H32.5108V0.267782H49.872C51.6275 0.267782 53.0854 0.639702 54.2458 1.38354C55.4062 2.12738 56.3286 3.06462 57.0129 4.19526C57.727 5.29614 58.2328 6.53092 58.5303 7.89958C58.8279 9.23849 58.9766 10.5179 58.9766 11.7378C58.9766 12.6899 58.8874 13.6867 58.7089 14.728C58.5303 15.7694 58.2328 16.7662 57.8162 17.7183C57.3997 18.6704 56.8493 19.5481 56.1649 20.3515C55.4806 21.1251 54.6475 21.7499 53.6656 22.2259L60.4048 31.5091ZM46.7479 15.9331C47.7595 15.9331 48.5778 15.6355 49.2026 15.0404C49.8274 14.4156 50.1398 13.3296 50.1398 11.7824C50.1398 10.2352 49.8423 9.11948 49.2472 8.43515C48.6521 7.72106 47.819 7.36402 46.7479 7.36402H40.9906V15.9331H46.7479Z" fill="url(#paint1_linear_542_8577)"/>
<path d="M75.9376 24.6806C76.5327 24.6806 77.1129 24.6211 77.6782 24.5021C78.2435 24.3533 78.7642 24.1004 79.2402 23.7434C79.746 23.3566 80.1775 22.821 80.5345 22.1367C80.8916 21.4523 81.1593 20.5597 81.3379 19.4589H89.416C89.2672 21.1548 88.9697 22.7466 88.5234 24.2343C88.0771 25.722 87.3332 27.0311 86.2918 28.1618C85.2802 29.2627 83.8967 30.1404 82.1412 30.795C80.4155 31.4496 78.2137 31.7768 75.5359 31.7768H74.9111C71.8762 31.7768 69.4067 31.3603 67.5024 30.5272C65.5982 29.6941 64.1254 28.5635 63.084 27.1353C62.0427 25.7071 61.3286 24.026 60.9418 22.0921C60.5847 20.1581 60.4062 18.0902 60.4062 15.8884C60.4062 13.6867 60.5847 11.6188 60.9418 9.6848C61.3286 7.75081 62.0427 6.06974 63.084 4.64156C64.1254 3.21339 65.5982 2.08275 67.5024 1.24965C69.4067 0.41655 71.8762 0 74.9111 0H75.5359C78.2137 0 80.4155 0.32729 82.1412 0.98187C83.8967 1.60669 85.2802 2.48443 86.2918 3.61506C87.3332 4.71595 88.0771 6.02511 88.5234 7.54254C88.9697 9.03022 89.2672 10.622 89.416 12.318H81.3379C81.1593 11.2171 80.8916 10.3245 80.5345 9.64017C80.1775 8.95584 79.746 8.43515 79.2402 8.0781C78.7642 7.69131 78.2435 7.4384 77.6782 7.31939C77.1129 7.17062 76.5327 7.09623 75.9376 7.09623H74.5094C73.7953 7.09623 73.0961 7.21525 72.4118 7.45328C71.7572 7.66155 71.1621 8.09298 70.6266 8.74756C70.1208 9.40214 69.7042 10.2947 69.3769 11.4254C69.0496 12.556 68.886 14.0437 68.886 15.8884C68.886 17.7034 69.0496 19.1911 69.3769 20.3515C69.7042 21.4821 70.1208 22.3747 70.6266 23.0293C71.1621 23.6839 71.7572 24.1302 72.4118 24.3682C73.0961 24.5765 73.7953 24.6806 74.5094 24.6806H75.9376Z" fill="url(#paint2_linear_542_8577)"/>
<path d="M117.229 0.267782V31.5091H108.839V26.3319H98.5293L96.4317 31.5091H87.4163L96.8333 8.74756C97.5474 7.02185 98.2318 5.60855 98.8863 4.50767C99.5707 3.40679 100.344 2.54393 101.207 1.91911C102.07 1.29428 103.096 0.862855 104.287 0.624826C105.507 0.386796 107.024 0.267782 108.839 0.267782H117.229ZM108.839 7.40865C107.857 7.55742 106.964 8.10786 106.161 9.05997C105.388 10.0121 104.599 11.47 103.796 13.4338L101.43 19.2357H108.839V7.40865Z" fill="url(#paint3_linear_542_8577)"/>
<path d="M132.691 0.267782C135.756 0.267782 138.226 0.624825 140.1 1.33891C142.004 2.02324 143.477 3.03487 144.518 4.37378C145.59 5.68294 146.304 7.30451 146.661 9.23849C147.048 11.1725 147.241 13.3891 147.241 15.8884C147.241 18.3877 147.048 20.6044 146.661 22.5384C146.304 24.4723 145.59 26.1088 144.518 27.4477C143.477 28.7569 142.004 29.7685 140.1 30.4826C138.226 31.1669 135.756 31.5091 132.691 31.5091H119.927V0.267782H132.691ZM133.138 24.4128C133.852 24.4128 134.536 24.3236 135.191 24.1451C135.875 23.9368 136.47 23.5351 136.976 22.94C137.512 22.3152 137.943 21.4523 138.27 20.3515C138.598 19.2208 138.761 17.7331 138.761 15.8884C138.761 14.0437 138.598 12.5709 138.27 11.47C137.943 10.3394 137.512 9.47652 136.976 8.88145C136.47 8.28638 135.875 7.8847 135.191 7.67643C134.536 7.46815 133.852 7.36402 133.138 7.36402H128.407V24.4128H133.138Z" fill="url(#paint4_linear_542_8577)"/>
<path d="M158.574 7.36402C158.039 7.36402 157.682 7.46815 157.503 7.67643C157.354 7.85495 157.28 8.19712 157.28 8.70293V12.318H170.178V19.4589H157.28V23.0739C157.28 23.5797 157.354 23.9368 157.503 24.1451C157.682 24.3236 158.039 24.4128 158.574 24.4128H172.41V31.5091H153.933C151.999 31.5091 150.66 31.0628 149.916 30.1702C149.172 29.2478 148.8 27.8791 148.8 26.0642V5.75732C148.8 3.9126 149.172 2.54393 149.916 1.65132C150.66 0.728963 151.999 0.267782 153.933 0.267782H172.41V7.36402H158.574Z" fill="url(#paint5_linear_542_8577)"/>
<path d="M202.756 0.267782V31.5091H196.776C195.794 31.5091 194.931 31.4496 194.187 31.3305C193.473 31.1818 192.819 30.9437 192.224 30.6165C191.658 30.2892 191.137 29.828 190.661 29.2329C190.215 28.6378 189.769 27.894 189.323 27.0014L182.762 13.9247V31.5091H174.282V0.267782H180.129C181.23 0.267782 182.167 0.357043 182.94 0.535566C183.714 0.684334 184.369 0.952115 184.904 1.33891C185.469 1.69595 185.96 2.17201 186.377 2.76708C186.793 3.36216 187.21 4.07624 187.627 4.90935L194.277 18.2092V0.267782H202.756Z" fill="url(#paint6_linear_542_8577)"/>
<defs>
<linearGradient id="paint0_linear_542_8577" x1="101.378" y1="0" x2="101.378" y2="32" gradientUnits="userSpaceOnUse">
<stop stop-color="#90FFD4"/>
<stop offset="1" stop-color="#00E979"/>
</linearGradient>
<linearGradient id="paint1_linear_542_8577" x1="101.378" y1="0" x2="101.378" y2="32" gradientUnits="userSpaceOnUse">
<stop stop-color="#90FFD4"/>
<stop offset="1" stop-color="#00E979"/>
</linearGradient>
<linearGradient id="paint2_linear_542_8577" x1="101.378" y1="0" x2="101.378" y2="32" gradientUnits="userSpaceOnUse">
<stop stop-color="#90FFD4"/>
<stop offset="1" stop-color="#00E979"/>
</linearGradient>
<linearGradient id="paint3_linear_542_8577" x1="101.378" y1="0" x2="101.378" y2="32" gradientUnits="userSpaceOnUse">
<stop stop-color="#90FFD4"/>
<stop offset="1" stop-color="#00E979"/>
</linearGradient>
<linearGradient id="paint4_linear_542_8577" x1="101.378" y1="0" x2="101.378" y2="32" gradientUnits="userSpaceOnUse">
<stop stop-color="#90FFD4"/>
<stop offset="1" stop-color="#00E979"/>
</linearGradient>
<linearGradient id="paint5_linear_542_8577" x1="101.378" y1="0" x2="101.378" y2="32" gradientUnits="userSpaceOnUse">
<stop stop-color="#90FFD4"/>
<stop offset="1" stop-color="#00E979"/>
</linearGradient>
<linearGradient id="paint6_linear_542_8577" x1="101.378" y1="0" x2="101.378" y2="32" gradientUnits="userSpaceOnUse">
<stop stop-color="#90FFD4"/>
<stop offset="1" stop-color="#00E979"/>
</linearGradient>
</defs>
</svg>
